<svg width="94" height="94" viewBox="0 0 94 94" fill="none" xmlns="http://www.w3.org/2000/svg">
<g opacity="0.75">
<circle cx="47" cy="47" r="46" fill="#D9D9D9" stroke="black" stroke-width="2"/>
<g clip-path="url(#clip0_9_103)">
<path d="M56.9264 37.0735L47 7.29412L37.0735 37.0735L7.29407 47L37.0735 56.9265L47 86.7059L56.9264 56.9265L86.7058 47L56.9264 37.0735ZM20.5294 47L40.3823 40.3824L43.6911 47H20.5294ZM47 73.4706L40.3823 53.6177L47 50.3088V73.4706ZM47 20.5294L53.6176 40.3824L47 43.6912V20.5294ZM53.6176 53.6177L50.3088 47H73.4705L53.6176 53.6177ZM36.0808 64.5368L23.8382 70.1618L29.4632 57.9191L34.7573 59.5735L36.0808 64.5368ZM64.5367 57.9191L70.1617 70.1618L57.9191 64.5368L59.5735 59.2426L64.5367 57.9191ZM29.4632 36.0809L23.8382 23.8382L36.0808 29.4632L34.4264 34.4265L29.4632 36.0809ZM57.9191 29.4632L70.1617 23.8382L64.5367 36.0809L59.2426 34.4265L57.9191 29.4632Z" fill="black" fill-opacity="0.25"/>
<rect x="22.1213" y="49.8385" width="7.19217" height="49.0873" rx="3.59608" transform="rotate(-88.7946 22.1213 49.8385)" fill="black"/>
<rect x="50.2032" y="71.3216" width="7.19217" height="49.0873" rx="3.59608" transform="rotate(-179.701 50.2032 71.3216)" fill="black"/>
</g>
</g>
<defs>
<clipPath id="clip0_9_103">
<rect width="79.4118" height="79.4118" fill="white" transform="translate(7.29407 7.29412)"/>
</clipPath>
</defs>
</svg>
