<svg width="250" height="250" viewBox="0 0 250 250" fill="none" xmlns="http://www.w3.org/2000/svg">
<rect width="250" height="250" rx="25" fill="#D9D9D9"/>
<path d="M125 130.882C111.25 130.882 99.4792 126.275 89.6875 117.059C79.8958 107.843 75 96.7647 75 83.8236V42.6471C75 37.7451 76.825 33.5765 80.475 30.1412C84.125 26.7059 88.55 24.9922 93.75 25C96.875 25 99.8458 25.6863 102.662 27.0589C105.479 28.4314 107.717 30.3922 109.375 32.9412C111.042 30.3922 113.279 28.4314 116.087 27.0589C118.896 25.6863 121.867 25 125 25C128.125 25 131.096 25.6863 133.912 27.0589C136.729 28.4314 138.967 30.3922 140.625 32.9412C142.292 30.3922 144.529 28.4314 147.337 27.0589C150.146 25.6863 153.117 25 156.25 25C161.458 25 165.887 26.7177 169.537 30.153C173.187 33.5883 175.008 37.753 175 42.6471V83.8236C175 96.7647 170.104 107.843 160.312 117.059C150.521 126.275 138.75 130.882 125 130.882ZM25 225V192.059C25 185.392 26.825 179.263 30.475 173.671C34.125 168.078 38.9667 163.816 45 160.882C57.9167 154.804 71.0417 150.243 84.375 147.2C97.7083 144.157 111.25 142.639 125 142.647C138.75 142.647 152.292 144.169 165.625 147.212C178.958 150.255 192.083 154.812 205 160.882C211.042 163.824 215.887 168.09 219.537 173.682C223.187 179.275 225.008 185.4 225 192.059V225H25Z" fill="black"/>
</svg>
