<svg width="352" height="352" viewBox="0 0 352 352" fill="none" xmlns="http://www.w3.org/2000/svg">
<g clip-path="url(#clip0_39_209)">
<rect x="1" y="-1" width="350" height="350" rx="25" fill="#C2D3CD" fill-opacity="0.5"/>
<path d="M176 337.333L132 293.333H73.3334C65.2667 293.333 58.3587 290.459 52.6094 284.709C46.86 278.96 43.9902 272.057 44 264V58.6667C44 50.6 46.8747 43.692 52.624 37.9427C58.3734 32.1933 65.2765 29.3236 73.3334 29.3333H278.667C286.733 29.3333 293.641 32.208 299.391 37.9573C305.14 43.7067 308.01 50.6098 308 58.6667V264C308 272.067 305.125 278.975 299.376 284.724C293.627 290.473 286.724 293.343 278.667 293.333H220L176 337.333ZM176 176C190.178 176 202.278 170.989 212.3 160.967C222.322 150.944 227.333 138.844 227.333 124.667C227.333 110.489 222.322 98.3889 212.3 88.3667C202.278 78.3445 190.178 73.3333 176 73.3333C161.822 73.3333 149.722 78.3445 139.7 88.3667C129.678 98.3889 124.667 110.489 124.667 124.667C124.667 138.844 129.678 150.944 139.7 160.967C149.722 170.989 161.822 176 176 176ZM176 296.267L208.267 264H278.667V247.133C265.467 234.178 250.125 223.975 232.643 216.524C215.16 209.073 196.279 205.343 176 205.333C155.711 205.333 136.825 209.064 119.343 216.524C101.86 223.984 86.5236 234.188 73.3334 247.133V264H143.733L176 296.267Z" fill="black"/>
</g>
<defs>
<clipPath id="clip0_39_209">
<rect width="352" height="352" fill="white"/>
</clipPath>
</defs>
</svg>
