<svg width="24" height="15" viewBox="0 0 24 15" fill="none" xmlns="http://www.w3.org/2000/svg">
<path d="M0.464844 15V0.683594H5.83594C6.92969 0.683594 7.80534 0.830078 8.46289 1.12305C9.12695 1.40951 9.64453 1.85547 10.0156 2.46094C10.3932 3.0599 10.582 3.68815 10.582 4.3457C10.582 4.95768 10.416 5.53385 10.084 6.07422C9.75195 6.61458 9.25065 7.05078 8.58008 7.38281C9.44596 7.63672 10.11 8.06966 10.5723 8.68164C11.041 9.29362 11.2754 10.0163 11.2754 10.8496C11.2754 11.5202 11.1322 12.1452 10.8457 12.7246C10.5658 13.2975 10.2174 13.7402 9.80078 14.0527C9.38411 14.3652 8.86003 14.6029 8.22852 14.7656C7.60352 14.9219 6.83529 15 5.92383 15H0.464844ZM2.35938 6.69922H5.45508C6.29492 6.69922 6.89714 6.64388 7.26172 6.5332C7.74349 6.38997 8.10482 6.15234 8.3457 5.82031C8.5931 5.48828 8.7168 5.07161 8.7168 4.57031C8.7168 4.09505 8.60286 3.67839 8.375 3.32031C8.14714 2.95573 7.82161 2.70833 7.39844 2.57812C6.97526 2.44141 6.24935 2.37305 5.2207 2.37305H2.35938V6.69922ZM2.35938 13.3105H5.92383C6.53581 13.3105 6.96549 13.2878 7.21289 13.2422C7.64909 13.1641 8.01367 13.0339 8.30664 12.8516C8.59961 12.6693 8.84049 12.4056 9.0293 12.0605C9.2181 11.709 9.3125 11.3053 9.3125 10.8496C9.3125 10.3158 9.17578 9.85352 8.90234 9.46289C8.62891 9.06576 8.24805 8.78906 7.75977 8.63281C7.27799 8.47005 6.58138 8.38867 5.66992 8.38867H2.35938V13.3105ZM13.9805 15V0.683594H23.6387V2.37305H15.875V6.80664H22.5938V8.49609H15.875V15H13.9805Z" fill="black"/>
</svg>
