<svg width="250" height="250" viewBox="0 0 250 250" fill="none" xmlns="http://www.w3.org/2000/svg">
<rect width="250" height="250" rx="25" fill="#D9D9D9"/>
<path d="M100 138C89.5833 138 80.7292 134.354 73.4375 127.062C66.1458 119.771 62.5 110.917 62.5 100.5C62.5 95.9166 63.2292 91.5916 64.6875 87.525C66.1458 83.4583 68.3333 79.7625 71.25 76.4375C70.4167 74.3541 69.7917 72.1667 69.375 69.875C68.9583 67.5833 68.75 65.2917 68.75 63C68.75 55.0833 70.8875 48.05 75.1625 41.9C79.4375 35.75 85.0083 31.225 91.875 28.325C96.0417 23.5333 100.938 19.7833 106.562 17.075C112.188 14.3667 118.333 13.0083 125 13C131.667 13 137.812 14.3542 143.438 17.0625C149.062 19.7708 153.958 23.5208 158.125 28.3125C165 31.2292 170.575 35.7625 174.85 41.9125C179.125 48.0625 181.258 55.0917 181.25 63C181.25 65.2917 181.042 67.5833 180.625 69.875C180.208 72.1667 179.583 74.3541 178.75 76.4375C181.667 79.7708 183.854 83.4708 185.312 87.5375C186.771 91.6041 187.5 95.925 187.5 100.5C187.5 110.917 183.854 119.771 176.562 127.062C169.271 134.354 160.417 138 150 138H100ZM50 238C43.125 238 37.2375 235.55 32.3375 230.65C27.4375 225.75 24.9917 219.867 25 213V203C25 195.917 26.825 189.404 30.475 183.462C34.125 177.521 38.9667 172.992 45 169.875C57.9167 163.417 71.0417 158.571 84.375 155.337C97.7083 152.104 111.25 150.492 125 150.5C138.75 150.5 152.292 152.117 165.625 155.35C178.958 158.583 192.083 163.425 205 169.875C211.042 173 215.887 177.533 219.537 183.475C223.187 189.417 225.008 195.925 225 203V213C225 219.875 222.55 225.762 217.65 230.662C212.75 235.562 206.867 238.008 200 238H50Z" fill="black"/>
</svg>
