<svg width="52" height="52" viewBox="0 0 52 52" fill="none" xmlns="http://www.w3.org/2000/svg">
<path d="M25.709 0.608002C29.081 0.608002 32.3149 1.94752 34.6992 4.33188C37.0836 6.71624 38.4231 9.95012 38.4231 13.3221C38.4231 16.6941 37.0836 19.928 34.6992 22.3123C32.3149 24.6967 29.081 26.0362 25.709 26.0362C22.337 26.0362 19.1031 24.6967 16.7187 22.3123C14.3344 19.928 12.9949 16.6941 12.9949 13.3221C12.9949 9.95012 14.3344 6.71624 16.7187 4.33188C19.1031 1.94752 22.337 0.608002 25.709 0.608002ZM25.709 32.3933C39.7581 32.3933 51.1372 38.0828 51.1372 45.1074V51.4644H0.280762V45.1074C0.280762 38.0828 11.6599 32.3933 25.709 32.3933Z" fill="black"/>
</svg>
