<svg width="55" height="55" viewBox="0 0 55 55" fill="none" xmlns="http://www.w3.org/2000/svg">
<path d="M39.1427 34.4456H36.6689L35.7921 33.6001C38.9669 29.9176 40.7119 25.2163 40.7084 20.3542C40.7084 16.3285 39.5147 12.3933 37.2781 9.04602C35.0416 5.69879 31.8627 3.08994 28.1434 1.54938C24.4242 0.00881916 20.3316 -0.394262 16.3833 0.391109C12.435 1.17648 8.8082 3.11503 5.96162 5.96162C3.11503 8.8082 1.17648 12.435 0.391109 16.3833C-0.394262 20.3316 0.00881916 24.4242 1.54938 28.1434C3.08994 31.8627 5.69879 35.0416 9.04602 37.2781C12.3933 39.5147 16.3285 40.7084 20.3542 40.7084C25.3958 40.7084 30.0303 38.8609 33.6001 35.7921L34.4456 36.6689V39.1427L50.1027 54.7685L54.7685 50.1027L39.1427 34.4456ZM20.3542 34.4456C12.557 34.4456 6.26284 28.1514 6.26284 20.3542C6.26284 12.557 12.557 6.26284 20.3542 6.26284C28.1514 6.26284 34.4456 12.557 34.4456 20.3542C34.4456 28.1514 28.1514 34.4456 20.3542 34.4456Z" fill="black"/>
</svg>
