<svg width="64" height="55" viewBox="0 0 64 55" fill="none" xmlns="http://www.w3.org/2000/svg">
<path d="M3.51812 54.7685C2.52133 54.7685 1.68519 54.3303 1.00971 53.454C0.334233 52.5777 -0.00233323 51.4945 1.21734e-05 50.2044C1.21734e-05 48.9113 0.337751 47.8266 1.01323 46.9503C1.68871 46.074 2.52367 45.6373 3.51812 45.6404H59.8079C60.8047 45.6404 61.6409 46.0785 62.3163 46.9548C62.9918 47.8311 63.3284 48.9143 63.326 50.2044C63.326 51.4976 62.9883 52.5823 62.3128 53.4586C61.6373 54.3349 60.8024 54.7715 59.8079 54.7685H3.51812ZM3.51812 31.9483C2.52133 31.9483 1.68519 31.5101 1.00971 30.6338C0.334233 29.7575 -0.00233323 28.6743 1.21734e-05 27.3842C1.21734e-05 26.0911 0.337751 25.0064 1.01323 24.1301C1.68871 23.2538 2.52367 22.8172 3.51812 22.8202H59.8079C60.8047 22.8202 61.6409 23.2583 62.3163 24.1346C62.9918 25.0109 63.3284 26.0941 63.326 27.3842C63.326 28.6774 62.9883 29.7621 62.3128 30.6384C61.6373 31.5147 60.8024 31.9513 59.8079 31.9483H3.51812ZM3.51812 9.12809C2.52133 9.12809 1.68519 8.68994 1.00971 7.81365C0.334233 6.93735 -0.00233323 5.85415 1.21734e-05 4.56405C1.21734e-05 3.27091 0.337751 2.18619 1.01323 1.3099C1.68871 0.4336 2.52367 -0.0030269 3.51812 1.57925e-05H59.8079C60.8047 1.57925e-05 61.6409 0.438164 62.3163 1.31446C62.9918 2.19075 63.3284 3.27395 63.326 4.56405C63.326 5.8572 62.9883 6.94192 62.3128 7.81821C61.6373 8.6945 60.8024 9.13113 59.8079 9.12809H3.51812Z" fill="black"/>
</svg>
